<svg width="512" height="512" viewBox="0 0 512 512" fill="none" xmlns="http://www.w3.org/2000/svg">
  <rect width="512" height="512" rx="100" fill="url(#gradient)"/>
  <path d="M256 160C256 160 200 200 200 280C200 320 224 350 256 370C288 350 312 320 312 280C312 200 256 160 256 160Z" fill="#E07A5F"/>
  <path d="M256 160C256 160 200 200 200 280C200 320 224 350 256 370C256 370 256 370 256 370C256 370 256 370 256 370C288 350 312 320 312 280C312 200 256 160 256 160Z" fill="url(#heart-gradient)"/>
  <circle cx="235" cy="265" r="8" fill="white" fill-opacity="0.6"/>
  <defs>
    <linearGradient id="gradient" x1="0" y1="0" x2="512" y2="512" gradientUnits="userSpaceOnUse">
      <stop stop-color="#A855F7"/>
      <stop offset="1" stop-color="#7C3AED"/>
    </linearGradient>
    <linearGradient id="heart-gradient" x1="200" y1="160" x2="312" y2="370" gradientUnits="userSpaceOnUse">
      <stop stop-color="#F0A090"/>
      <stop offset="1" stop-color="#C85A3E"/>
    </linearGradient>
  </defs>
</svg>
